#N canvas 593 157 450 300 10;
#X obj 146 45 notein;
#X obj 146 78 pack f f f;
#X obj 217 47 ctlin;
#X obj 217 76 pack f f f;
#X obj 146 105 s note;
#X obj 319 91 adc~;
#X obj 319 139 s~ pk_input;
#X obj 69 105 s last_note;
#X obj 217 103 s cc;
#X obj 132 129 print note;
#X obj 242 154 print;
#X connect 0 0 1 0;
#X connect 0 0 7 0;
#X connect 0 1 1 1;
#X connect 0 2 1 2;
#X connect 1 0 4 0;
#X connect 1 0 9 0;
#X connect 2 0 3 0;
#X connect 2 1 3 1;
#X connect 2 2 3 2;
#X connect 3 0 8 0;
#X connect 3 0 10 0;
#X connect 5 0 6 0;
