#N canvas 16 87 450 300 10;
#X obj 124 110 catch~ pk_master;
#X obj 151 238 dac~;
#X obj 238 187 *~ 0.6;
#X obj 136 173 punch~ 8;
#X obj 235 58 r rec_mode;
#X obj 271 149 ||;
#X obj 319 90 ctlin 75;
#X obj 329 129 / 127;
#X obj 281 103 b;
#X obj 237 143 adc~;
#X connect 0 0 3 0;
#X connect 2 0 1 0;
#X connect 2 0 1 1;
#X connect 3 0 1 0;
#X connect 3 0 1 1;
#X connect 4 0 5 0;
#X connect 5 0 2 1;
#X connect 6 0 7 0;
#X connect 7 0 5 1;
#X connect 7 0 8 0;
#X connect 8 0 5 0;
#X connect 9 0 2 0;
