#N canvas 182 99 468 286 10;
#X obj 189 17 table \$1_neko 400000;
#N canvas 347 64 400 383 rec_part 0;
#X obj 69 115 r~ pk_input;
#X obj 69 305 tabwrite~ \$1_neko;
#X msg 132 262 start 0;
#X obj 178 88 sel 1;
#X obj 178 65 != \$1;
#X obj 178 40 r rec_stop;
#X obj 178 120 b;
#X obj 69 257 *~;
#X obj 91 214 line~;
#X obj 219 89 r all_stop;
#X obj 91 152 r \$1_rec;
#X obj 132 238 r \$1_rec;
#X msg 178 162 0 2000;
#X msg 91 180 1;
#X connect 0 0 7 0;
#X connect 2 0 1 0;
#X connect 3 0 6 0;
#X connect 4 0 3 0;
#X connect 5 0 4 0;
#X connect 6 0 12 0;
#X connect 7 0 1 0;
#X connect 8 0 7 1;
#X connect 9 0 6 0;
#X connect 10 0 13 0;
#X connect 11 0 2 0;
#X connect 12 0 8 0;
#X connect 13 0 8 0;
#X restore 111 17 pd rec_part;
#N canvas 0 0 465 580 play_part 1;
#X obj 79 350 throw~ pk_master;
#X obj 79 317 *~;
#X obj 94 296 line~;
#X obj 94 273 r \$0_line;
#X obj 80 229 xgroove~ \$1_neko;
#N canvas 526 27 465 495 play_sample 1;
#X obj 48 71 route \$1;
#X obj 48 45 r note;
#X obj 48 103 unpack f f f;
#X obj 48 167 route 0;
#X obj 87 237 b;
#X obj 48 136 / 127;
#X obj 14 215 s \$0_line;
#X obj 140 216 s \$0_line;
#X obj 237 166 r rec_mode;
#X obj 219 236 < 1;
#X obj 245 272 spigot;
#X msg 140 192 \$1 2;
#X obj 245 332 \$1;
#X obj 245 357 s rec_stop;
#X obj 29 330 r pitch;
#X obj 256 307 s \$1_rec;
#X msg 87 301 reset \, bang;
#X obj 87 276 spigot;
#X msg 205 303 stop;
#X msg 14 192 0 64;
#X obj 87 412 outlet;
#X connect 0 0 2 0;
#X connect 1 0 0 0;
#X connect 2 0 5 0;
#X connect 3 0 19 0;
#X connect 3 1 4 0;
#X connect 3 1 11 0;
#X connect 4 0 10 0;
#X connect 4 0 17 0;
#X connect 5 0 3 0;
#X connect 8 0 9 0;
#X connect 8 0 10 1;
#X connect 9 0 17 1;
#X connect 10 0 12 0;
#X connect 10 0 15 0;
#X connect 10 0 18 0;
#X connect 11 0 7 0;
#X connect 12 0 13 0;
#X connect 14 0 20 0;
#X connect 16 0 20 0;
#X connect 17 0 16 0;
#X connect 18 0 20 0;
#X connect 19 0 6 0;
#X restore 80 85 pd play_sample;
#X connect 1 0 0 0;
#X connect 2 0 1 1;
#X connect 3 0 2 0;
#X connect 4 0 1 0;
#X connect 5 0 4 0;
#X restore 28 17 pd play_part;
