#N canvas 489 219 634 449 10;
#X obj 492 39 guts/input;
#X obj 492 61 guts/master;
#X obj 148 29 bng 15 250 50 0 empty empty empty 17 7 0 10 -262144 -1
-1;
#X obj 131 128 tgl 15 0 empty empty empty 17 7 0 10 -262144 -1 -1 0
1;
#X obj 148 51 guts/file;
#X obj 131 147 s rec_mode;
#X obj 92 73 route 0;
#X msg 131 95 1;
#X msg 92 94 0;
#X obj 92 125 b;
#X obj 92 168 s all_stop;
#X obj 333 94 s pitch;
#X obj 333 50 ctlin 42;
#X obj 333 72 expr (($f1 / 127)*2);
#X obj 92 52 ctlin 44;
#X obj 70 291 guts/voice 60;
#X obj 288 141 loadbang;
#X msg 288 163 \; pitch 1;
#X obj 70 231 guts/voice 72;
#X obj 155 291 guts/voice 61;
#X obj 240 291 guts/voice 62;
#X obj 325 291 guts/voice 63;
#X obj 70 271 guts/voice 64;
#X obj 155 271 guts/voice 65;
#X obj 240 271 guts/voice 66;
#X obj 325 271 guts/voice 67;
#X obj 70 251 guts/voice 68;
#X obj 155 251 guts/voice 69;
#X obj 240 251 guts/voice 70;
#X obj 325 251 guts/voice 71;
#X obj 325 231 guts/voice 75;
#X obj 155 231 guts/voice 73;
#X obj 240 231 guts/voice 74;
#X connect 2 0 4 0;
#X connect 3 0 5 0;
#X connect 6 0 8 0;
#X connect 6 1 7 0;
#X connect 7 0 3 0;
#X connect 8 0 3 0;
#X connect 8 0 9 0;
#X connect 9 0 10 0;
#X connect 12 0 13 0;
#X connect 13 0 11 0;
#X connect 14 0 6 0;
#X connect 16 0 17 0;
#X coords 0 0 1 1 85 60 0;
